<svg xmlns="http://www.w3.org/2000/svg" xmlns:xlink="http://www.w3.org/1999/xlink" version="1.1" id="layer" x="0px" y="0px" style="enable-background:new 0 0 652 652;" xml:space="preserve" viewBox="20.94 261.13 600.09 119.77">
<style type="text/css">
	.st0{fill:#76B72A;}
	.st1{fill:#00A883;}
	.st2{fill:#521B66;}
</style>
<path class="st0" d="M168,277c-11.3,4-19.7,0.6-25.6,0c-2.9-0.3-5.8-0.3-8.8,0c-1.7,0.1-3.5,0.4-5.2,0.8  c-13.4,2.7-20.9,13.4-25.3,24.9c0-0.6,0-1.1,0-1.7c0.8-14.9-4.2-36.8-22.5-39.3c-13-2.1-26.2,1.7-36,10.4h-0.2l-0.8,0.9l0,0  c-14.2,12-15.8,27.4-9.5,48.5c1.4,4.7,3.4,9.2,6,13.4v-0.6l0,0c-4.7-19.5,2.5-40,18.4-52.3c17.6-14.6,33.1-8,38.4,5.6  c1.6,4.6,2.4,9.4,2.4,14.2c0,5.7-1.4,11.2-4,16.2l0,0c-1.2,2.6-2.4,5.3-3.4,8c-2.1,4.9-3.5,8.4-4.4,11.2l0,0v0.4  c-0.4,0.8-0.1,1.7,0.7,2.1c0.1,0,0.2,0.1,0.3,0.1c0.9,0.2,1.8-0.2,2.2-1l0.4-1.1v-0.2c3.4-9,7.3-17.9,11.6-26.5  c0.6-1.2,1.2-2.2,1.8-3.2v-0.3c0.5-0.7,0.9-1.4,1.3-1.9l0,0c0.5-0.7,1.1-1.4,1.7-2l0,0l0,0l0.2-0.2c1.7-1.5,3.8-2.4,6.1-2.4h0.4  c2.9-0.3,5.7,0,10.3,0.2c2.1,0,4.1-0.2,6.1-0.6c1.6-0.3,3.2-0.7,4.8-1.2l0,0C149,295.3,157,288.5,168,277z"/>
<path class="st1" d="M48.4,359.1c-1.8-5.6-3.9-11.1-6.4-16.4c1.8,7.1-2.1,12-5.3,16.2c-3.2,4.2-1.4,11.8,4.4,12  C46.8,371.1,50.5,365.9,48.4,359.1z M34.1,321.5c-5.5-18.6-5.1-32.8,5-44.3c-10,2.1-20.5,10.8-17.7,28.5c1.1,5.3,3.4,10.4,6.6,14.8  c4,5.4,8.6,9.3,11.1,12.8C37,329.6,35.3,325.7,34.1,321.5z"/>
<polygon class="st1" points="40.2,335 40.2,335 40.2,335 "/>
<path class="st2" d="M291.1,330.7c-16.6-1.7-26.4,12-34.5,19.6c7.8-22.5,18.4-43.9,31.5-63.7c3.5-5.4,0-8.3-3.6-8.8  c-5.4-1.2-10.8,1.3-13.6,6c-7.7,12.4-14.1,25.6-19.2,39.3c-13.2,34-15.8,49.1-8.2,50.4c6.4,1.1,9.4-2.2,14-6.7  c13.7-13.4,23.1-23.4,28.9-21.2c5.8,2.2,5.3,11.2,6,24.3c0.4,4.6,0.5,6.1,5.6,5.6c3,0,5.6-2.3,5.9-5.4  C306.1,348.4,304.4,332,291.1,330.7z M459.9,311.4c4.6,2.5,10.3,0.9,13-3.6c3.2-4.7,3.5-11.3-1.3-13.2c-4.6-2.2-10.2-0.7-13.2,3.4  c-3.3,3.9-2.8,9.8,1.1,13.1C459.6,311.2,459.8,311.3,459.9,311.4z M459.8,321c-4.2-4-8-4.5-11.7,0.7c-5.3,7.1-16.8,34-18.2,44.6  c-0.8,5.7-0.8,8.4,3.4,8.8c3.6,0.3,7.2-1,9.6-7.2c4-11.3,9.1-22.2,15.1-32.6C463.6,326.4,462.2,323.3,459.8,321z M410.8,362.3  c-1.4,0.8-7.7,3.4-8.3-1.8c-0.4-4.2,4.7-16.2,9.9-28.3c1.2-2.5,2.8-5.7,4.6-9.3c9-1.6,16.4-2.8,18.7-3.1c4.6-0.6,5.7-3.3,6.6-6.4  s-0.8-3.6-5.9-3.7c-4,0-8.3,0-12.6,0.2c4.8-8.9,9.8-17.6,13-22.1c4.5-6.4,3.3-9.2-2.2-10c-4.7-0.8-9.4,1.3-12,5.2  c-6.1,9.2-11.6,18.7-16.6,28.6c-6.5,0.8-12.9,1.8-19,3c-4.4,0.5-7.9,4-8.4,8.4c-2.2,8.9,3.7,7.6,11,5.8c3-0.8,6.1-1.5,9.2-2.2  c-7.8,17.2-12,29.2-11,37.4c1.2,12,16,15.1,27,6.3c0,0,4-3.2,3-6.7C416.3,357.7,414.3,360.3,410.8,362.3z M242.5,301.7  c0.4-0.5,0.7-0.9,1-1.4c3.1-5.2,2.2-11.8-2.2-16c-4.4-4.5-10.5-7.2-16.8-7.3h-1.9c-22.8,1.1-52.7,22.6-69.6,47.3  c-22,32.4-11.3,56,16,56.6c20.3,0.1,40.2-6.2,56.8-18c4-2.8,6.8-4.4,7.1-9.8c0-0.2,0-0.4,0-0.6l0,0c0-0.3,0-0.6,0-0.9  c-0.6-4.6-2.6-5.5-4.8-4.8c-2.8,0.9-5.5,2.3-8,4l0,0l-4.3,2.4c-18.4,10.5-58.1,17.7-55.7-0.2c1.4-10.2,9.4-26.3,31.4-45.1  c12-9.5,28.2-17.2,37.1-14l0,0l0.6,0.3c2.4,1.8,4.2,4.2,5.2,7C235.6,303.8,238.2,306.7,242.5,301.7z M608.4,321  c-17.3,0.3-33.4,9.3-42.6,24c-3.1,5-4.8,10.9-4.8,16.8c0,0.4,0,0.7,0,1.1s0,0.6,0,0.9s0,0.7,0.2,1.1l0,0c1.6,6.5,7.7,10.1,16.8,10.8  h1.9h1.1c9,0.4,17.9-2.1,25.3-7.2c2.7-2.1,4-5.6,3.3-9c-0.5-1.9-1.8-3.6-5.8-0.3l-2.3,1.4l0,0c-1.3,0.8-2.6,1.4-4,2  c-6.1,3-13.1,3.5-19.5,1.5c-2.1-0.8-3.6-2.8-3.6-5.1c0,0,0-0.4,0-0.6h0.3c13.2,1.2,26.3-3,36.4-11.5  C626.2,333,623.1,320.7,608.4,321z M577.9,349c10.5-16.4,25.7-18.2,27.8-17.3C608.6,333.3,601.3,346,577.9,349z M546,326.2  c-12-0.7-21.1,11.5-27.1,17.4c6.6-17.8-1.5-21.7-7.4-21c-9.3,0.9-19.6,8-33,22.2c2.6-4.7,6.1-10.6,8-14.2c4-7.1,0.6-9.1-4.3-9.1  c-3.5-0.3-6.9,1.5-8.7,4.6c-4.8,7.7-8.6,16.1-11.2,24.9c-1.3,3.9-2.3,7.9-3,12l0,0v0.2c-1.3,8.4,0.6,10.6,3.5,11.1  c3.2,0.4,6.4-0.9,8.3-3.5l0,0l0.5-0.6l0,0c2.6-3.1,6.5-8.4,14.5-17.6c9.2-10,17-16.6,21.2-15.2c2.4,1.1-1.4,7.2-6.8,29.2  c-1.2,4.5,2.4,5.9,4.9,6.1c2.6,0.2,5.2-0.8,8.8-6.1c6.1-9.3,13.3-17.8,21.5-25.4c7.1-5.8,8.4-2.1,6.3,5.8c-2.1,7-4.7,13.9-8,20.4  c-2.2,4.8,0.4,6.2,3.1,6.9s7.2,0.6,10.4-6c3.8-8,6.5-16.6,8-25.4C557.3,334.1,554.3,326.7,546,326.2z M371.2,365.8  c-1.6-0.9-2.9-2.3-3.7-4v-0.3l-0.3-0.7c-1.5-4.2-0.6-10.8-2.6-12.4c-2.6-1.8-6-1.7-8.4,0.3c-1.5,0.9-3.1,2.4-5.4,4l-2,1.4l-1.3,0.8  l-0.8,0.5l-0.8,0.5l-0.8,0.4c-3.8,2.2-7.8,3.8-12,4.8l0,0c-1.3,0.2-2.7,0.2-4,0c-2-0.5-2-2.4,0-6.2c2.9-5.4,6.7-10.2,11.2-14.4  c7-5.8,11.2-7.4,13.7-7.4c6.4-0.4-1.3,9.7,8.4,10.1c4.4,0,6.5-2.7,7.5-7.6c1.5-8.7-2.2-13.4-10.1-14.6c-11.2-1.7-32,7.3-41.9,26.6  c-6.5,11.4-6.2,22.9,2,26c8.9,3.2,23.4-0.3,36-9.1c2.1,6.1,7.3,10.5,13.6,11.5c5.3,0.7,10.2-1.5,10.2-6.6  C379.6,365.3,374.8,368.1,371.2,365.8z"/>
</svg>